<mxfile host="app.diagrams.net" modified="2023-04-28T19:38:53.273Z" agent="Mozilla/5.0 (Windows NT 10.0; Win64; x64) AppleWebKit/537.36 (KHTML, like Gecko) Chrome/112.0.0.0 Safari/537.36" etag="DQnI04yRevooolqCnz05" version="21.2.2" type="device">
  <diagram name="Page-1" id="8gLKjmXoiUkpDS6-KEee">
    <mxGraphModel dx="1050" dy="1641" grid="1" gridSize="10" guides="1" tooltips="1" connect="1" arrows="1" fold="1" page="1" pageScale="1" pageWidth="850" pageHeight="1100" math="0" shadow="0">
      <root>
        <mxCell id="0" />
        <mxCell id="1" parent="0" />
        <mxCell id="7J8SJTc09jxHJSIJmYuL-5" style="edgeStyle=orthogonalEdgeStyle;rounded=0;orthogonalLoop=1;jettySize=auto;html=1;entryX=-0.022;entryY=0.5;entryDx=0;entryDy=0;entryPerimeter=0;" parent="1" source="0mSsdc6eGmOm2Ww2mC35-1" target="0mSsdc6eGmOm2Ww2mC35-2" edge="1">
          <mxGeometry relative="1" as="geometry" />
        </mxCell>
        <mxCell id="0mSsdc6eGmOm2Ww2mC35-1" value="πελάτης" style="shape=umlActor;verticalLabelPosition=bottom;verticalAlign=top;html=1;fontSize=16;" parent="1" vertex="1">
          <mxGeometry x="50" y="-210" width="30" height="60" as="geometry" />
        </mxCell>
        <mxCell id="7J8SJTc09jxHJSIJmYuL-10" style="edgeStyle=orthogonalEdgeStyle;rounded=0;orthogonalLoop=1;jettySize=auto;html=1;" parent="1" source="0mSsdc6eGmOm2Ww2mC35-2" target="0mSsdc6eGmOm2Ww2mC35-5" edge="1">
          <mxGeometry relative="1" as="geometry" />
        </mxCell>
        <mxCell id="0mSsdc6eGmOm2Ww2mC35-2" value="Κύρια Οθόνη Χρήστη" style="shape=umlBoundary;whiteSpace=wrap;html=1;" parent="1" vertex="1">
          <mxGeometry x="310" y="-215" width="90" height="70" as="geometry" />
        </mxCell>
        <mxCell id="0mSsdc6eGmOm2Ww2mC35-4" value="Επιλογή Κατηγορίας" style="text;html=1;align=center;verticalAlign=middle;resizable=0;points=[];autosize=1;strokeColor=none;fillColor=none;fontSize=14;" parent="1" vertex="1">
          <mxGeometry x="140" y="-220" width="150" height="30" as="geometry" />
        </mxCell>
        <mxCell id="7J8SJTc09jxHJSIJmYuL-12" style="edgeStyle=orthogonalEdgeStyle;rounded=0;orthogonalLoop=1;jettySize=auto;html=1;entryX=0.5;entryY=1;entryDx=0;entryDy=0;" parent="1" source="0mSsdc6eGmOm2Ww2mC35-5" target="0mSsdc6eGmOm2Ww2mC35-24" edge="1">
          <mxGeometry relative="1" as="geometry" />
        </mxCell>
        <mxCell id="0mSsdc6eGmOm2Ww2mC35-5" value="Εμφάνισε" style="ellipse;shape=umlControl;whiteSpace=wrap;html=1;" parent="1" vertex="1">
          <mxGeometry x="550" y="-220" width="70" height="80" as="geometry" />
        </mxCell>
        <mxCell id="0mSsdc6eGmOm2Ww2mC35-9" value="Προϊόντα συγκεκριμένης&lt;br style=&quot;border-color: var(--border-color); font-size: 14px;&quot;&gt;&lt;span style=&quot;font-size: 14px;&quot;&gt;κατηγορίας&lt;/span&gt;" style="shape=umlBoundary;whiteSpace=wrap;html=1;fontSize=14;" parent="1" vertex="1">
          <mxGeometry x="525" y="-90" width="120" height="90" as="geometry" />
        </mxCell>
        <mxCell id="7J8SJTc09jxHJSIJmYuL-42" style="edgeStyle=orthogonalEdgeStyle;rounded=0;orthogonalLoop=1;jettySize=auto;html=1;" parent="1" source="0mSsdc6eGmOm2Ww2mC35-15" target="7J8SJTc09jxHJSIJmYuL-41" edge="1">
          <mxGeometry relative="1" as="geometry" />
        </mxCell>
        <mxCell id="7J8SJTc09jxHJSIJmYuL-48" style="edgeStyle=orthogonalEdgeStyle;rounded=0;orthogonalLoop=1;jettySize=auto;html=1;fillColor=#f8cecc;strokeColor=#b85450;" parent="1" source="0mSsdc6eGmOm2Ww2mC35-15" target="7J8SJTc09jxHJSIJmYuL-47" edge="1">
          <mxGeometry relative="1" as="geometry" />
        </mxCell>
        <mxCell id="0mSsdc6eGmOm2Ww2mC35-15" value="Έλεγχος Stock&lt;br&gt;" style="ellipse;shape=umlControl;whiteSpace=wrap;html=1;" parent="1" vertex="1">
          <mxGeometry x="930" y="10" width="70" height="80" as="geometry" />
        </mxCell>
        <mxCell id="0mSsdc6eGmOm2Ww2mC35-24" value="προϊοντα" style="ellipse;shape=umlEntity;whiteSpace=wrap;html=1;" parent="1" vertex="1">
          <mxGeometry x="545" y="-340" width="80" height="80" as="geometry" />
        </mxCell>
        <mxCell id="0mSsdc6eGmOm2Ww2mC35-28" value="Προσθήκη στο καλάθι" style="ellipse;shape=umlControl;whiteSpace=wrap;html=1;" parent="1" vertex="1">
          <mxGeometry x="1040" y="290" width="120" height="110" as="geometry" />
        </mxCell>
        <mxCell id="0mSsdc6eGmOm2Ww2mC35-61" value="Ναι" style="text;html=1;align=center;verticalAlign=middle;resizable=0;points=[];autosize=1;strokeColor=none;fillColor=none;" parent="1" vertex="1">
          <mxGeometry x="860" y="150" width="40" height="30" as="geometry" />
        </mxCell>
        <mxCell id="0mSsdc6eGmOm2Ww2mC35-95" value="Εξαργύρωση πόντων" style="ellipse;whiteSpace=wrap;html=1;fontSize=13;fillColor=#e1d5e7;strokeColor=#9673a6;" parent="1" vertex="1">
          <mxGeometry x="1520" y="610" width="150" height="120" as="geometry" />
        </mxCell>
        <mxCell id="7J8SJTc09jxHJSIJmYuL-30" style="edgeStyle=orthogonalEdgeStyle;rounded=0;orthogonalLoop=1;jettySize=auto;html=1;" parent="1" source="0mSsdc6eGmOm2Ww2mC35-108" target="7J8SJTc09jxHJSIJmYuL-24" edge="1">
          <mxGeometry relative="1" as="geometry" />
        </mxCell>
        <mxCell id="0mSsdc6eGmOm2Ww2mC35-108" value="Εμφάνισε" style="ellipse;shape=umlControl;whiteSpace=wrap;html=1;" parent="1" vertex="1">
          <mxGeometry x="725" y="-95" width="70" height="80" as="geometry" />
        </mxCell>
        <mxCell id="7J8SJTc09jxHJSIJmYuL-20" value="" style="endArrow=classic;html=1;rounded=0;entryX=0.01;entryY=0.487;entryDx=0;entryDy=0;entryPerimeter=0;" parent="1" source="0mSsdc6eGmOm2Ww2mC35-1" edge="1" target="0mSsdc6eGmOm2Ww2mC35-9">
          <mxGeometry width="50" height="50" relative="1" as="geometry">
            <mxPoint x="460" as="sourcePoint" />
            <mxPoint x="510" y="-50" as="targetPoint" />
          </mxGeometry>
        </mxCell>
        <mxCell id="7J8SJTc09jxHJSIJmYuL-21" value="Επιλογή&amp;nbsp;Προϊόντος&lt;br style=&quot;font-size: 14px;&quot;&gt;" style="text;html=1;align=center;verticalAlign=middle;resizable=0;points=[];autosize=1;strokeColor=none;fillColor=none;rotation=15;fontSize=14;" parent="1" vertex="1">
          <mxGeometry x="285" y="-130" width="140" height="30" as="geometry" />
        </mxCell>
        <mxCell id="7J8SJTc09jxHJSIJmYuL-33" style="edgeStyle=orthogonalEdgeStyle;rounded=0;orthogonalLoop=1;jettySize=auto;html=1;entryX=0;entryY=0.5;entryDx=0;entryDy=0;" parent="1" source="7J8SJTc09jxHJSIJmYuL-24" target="v3bIDm9uozYSWbY9ADvY-5" edge="1">
          <mxGeometry relative="1" as="geometry">
            <mxPoint x="920" y="182.5" as="targetPoint" />
          </mxGeometry>
        </mxCell>
        <mxCell id="7J8SJTc09jxHJSIJmYuL-24" value="Προσθήκη στα Αγαπημένα;" style="shape=umlBoundary;whiteSpace=wrap;html=1;" parent="1" vertex="1">
          <mxGeometry x="710" y="140" width="100" height="80" as="geometry" />
        </mxCell>
        <mxCell id="7J8SJTc09jxHJSIJmYuL-31" value="" style="endArrow=classic;html=1;rounded=0;entryX=-0.01;entryY=0.475;entryDx=0;entryDy=0;entryPerimeter=0;" parent="1" source="0mSsdc6eGmOm2Ww2mC35-1" target="7J8SJTc09jxHJSIJmYuL-24" edge="1">
          <mxGeometry width="50" height="50" relative="1" as="geometry">
            <mxPoint x="500" y="200" as="sourcePoint" />
            <mxPoint x="550" y="150" as="targetPoint" />
          </mxGeometry>
        </mxCell>
        <mxCell id="7J8SJTc09jxHJSIJmYuL-32" value="Επιλογή για Αγαπημένα" style="text;html=1;align=center;verticalAlign=middle;resizable=0;points=[];autosize=1;strokeColor=none;fillColor=none;rotation=25;fontSize=15;" parent="1" vertex="1">
          <mxGeometry x="405" y="20" width="180" height="30" as="geometry" />
        </mxCell>
        <mxCell id="7J8SJTc09jxHJSIJmYuL-35" value="" style="endArrow=classic;html=1;rounded=0;entryX=0.014;entryY=0.65;entryDx=0;entryDy=0;entryPerimeter=0;exitX=0.92;exitY=0.203;exitDx=0;exitDy=0;exitPerimeter=0;" parent="1" target="0mSsdc6eGmOm2Ww2mC35-15" edge="1" source="7J8SJTc09jxHJSIJmYuL-24">
          <mxGeometry width="50" height="50" relative="1" as="geometry">
            <mxPoint x="805" y="100" as="sourcePoint" />
            <mxPoint x="855" y="50" as="targetPoint" />
          </mxGeometry>
        </mxCell>
        <mxCell id="7J8SJTc09jxHJSIJmYuL-39" value="Όχι&lt;br&gt;" style="text;html=1;align=center;verticalAlign=middle;resizable=0;points=[];autosize=1;strokeColor=none;fillColor=none;" parent="1" vertex="1">
          <mxGeometry x="825" y="50" width="40" height="30" as="geometry" />
        </mxCell>
        <mxCell id="7J8SJTc09jxHJSIJmYuL-45" style="edgeStyle=orthogonalEdgeStyle;rounded=0;orthogonalLoop=1;jettySize=auto;html=1;" parent="1" source="7J8SJTc09jxHJSIJmYuL-41" target="7J8SJTc09jxHJSIJmYuL-44" edge="1">
          <mxGeometry relative="1" as="geometry" />
        </mxCell>
        <mxCell id="7J8SJTc09jxHJSIJmYuL-41" value="Εμφάνισε" style="ellipse;shape=umlControl;whiteSpace=wrap;html=1;" parent="1" vertex="1">
          <mxGeometry x="1130" y="70" width="70" height="80" as="geometry" />
        </mxCell>
        <mxCell id="7J8SJTc09jxHJSIJmYuL-43" value="In stock&lt;br&gt;" style="text;html=1;align=center;verticalAlign=middle;resizable=0;points=[];autosize=1;strokeColor=none;fillColor=none;" parent="1" vertex="1">
          <mxGeometry x="1010" y="20" width="60" height="30" as="geometry" />
        </mxCell>
        <mxCell id="7J8SJTc09jxHJSIJmYuL-44" value="Φαρμακεία" style="ellipse;shape=umlEntity;whiteSpace=wrap;html=1;" parent="1" vertex="1">
          <mxGeometry x="1330" y="70" width="80" height="80" as="geometry" />
        </mxCell>
        <mxCell id="7J8SJTc09jxHJSIJmYuL-51" style="edgeStyle=orthogonalEdgeStyle;rounded=0;orthogonalLoop=1;jettySize=auto;html=1;entryX=0;entryY=0.463;entryDx=0;entryDy=0;entryPerimeter=0;fillColor=#ffe6cc;strokeColor=#d79b00;" parent="1" source="7J8SJTc09jxHJSIJmYuL-47" target="7J8SJTc09jxHJSIJmYuL-50" edge="1">
          <mxGeometry relative="1" as="geometry" />
        </mxCell>
        <mxCell id="7J8SJTc09jxHJSIJmYuL-60" style="edgeStyle=orthogonalEdgeStyle;rounded=0;orthogonalLoop=1;jettySize=auto;html=1;fillColor=#f8cecc;strokeColor=#b85450;" parent="1" source="7J8SJTc09jxHJSIJmYuL-47" target="7J8SJTc09jxHJSIJmYuL-59" edge="1">
          <mxGeometry relative="1" as="geometry" />
        </mxCell>
        <mxCell id="7J8SJTc09jxHJSIJmYuL-47" value="Είναι ο χρήστης Premium" style="ellipse;shape=umlControl;whiteSpace=wrap;html=1;fillColor=#f8cecc;strokeColor=#b85450;" parent="1" vertex="1">
          <mxGeometry x="930" y="-180" width="70" height="80" as="geometry" />
        </mxCell>
        <mxCell id="7J8SJTc09jxHJSIJmYuL-49" value="Out of stock" style="text;html=1;align=center;verticalAlign=middle;resizable=0;points=[];autosize=1;strokeColor=#b85450;fillColor=#f8cecc;rotation=-90;" parent="1" vertex="1">
          <mxGeometry x="900" y="-60" width="90" height="30" as="geometry" />
        </mxCell>
        <mxCell id="7J8SJTc09jxHJSIJmYuL-54" style="edgeStyle=orthogonalEdgeStyle;rounded=0;orthogonalLoop=1;jettySize=auto;html=1;entryX=0;entryY=0.5;entryDx=0;entryDy=0;fillColor=#ffe6cc;strokeColor=#d79b00;" parent="1" source="7J8SJTc09jxHJSIJmYuL-50" target="7J8SJTc09jxHJSIJmYuL-53" edge="1">
          <mxGeometry relative="1" as="geometry" />
        </mxCell>
        <mxCell id="7J8SJTc09jxHJSIJmYuL-50" value="Οθόνη για επιλογή μεταξύ ενφιαφέροντος και εναλλακτικών" style="shape=umlBoundary;whiteSpace=wrap;html=1;fillColor=#ffe6cc;strokeColor=#d79b00;" parent="1" vertex="1">
          <mxGeometry x="987.5" y="-345" width="165" height="90" as="geometry" />
        </mxCell>
        <mxCell id="7J8SJTc09jxHJSIJmYuL-52" value="Ναι" style="text;html=1;align=center;verticalAlign=middle;resizable=0;points=[];autosize=1;strokeColor=#d79b00;fillColor=#ffe6cc;" parent="1" vertex="1">
          <mxGeometry x="930" y="-330" width="40" height="30" as="geometry" />
        </mxCell>
        <mxCell id="7J8SJTc09jxHJSIJmYuL-53" value="Προβολή εναλλακτικών προϊόντων για&lt;br style=&quot;border-color: var(--border-color);&quot;&gt;προϊόντα που είναι out of stock" style="ellipse;whiteSpace=wrap;html=1;fillColor=#ffe6cc;strokeColor=#d79b00;" parent="1" vertex="1">
          <mxGeometry x="1230" y="-280" width="165" height="90" as="geometry" />
        </mxCell>
        <mxCell id="7J8SJTc09jxHJSIJmYuL-55" value="Ενδιαφέρον για τα out of stock προϊόντα" style="ellipse;whiteSpace=wrap;html=1;fillColor=#dae8fc;strokeColor=#6c8ebf;" parent="1" vertex="1">
          <mxGeometry x="1260" y="-440" width="120" height="80" as="geometry" />
        </mxCell>
        <mxCell id="7J8SJTc09jxHJSIJmYuL-57" value="" style="endArrow=none;html=1;rounded=0;fillColor=#dae8fc;strokeColor=#6c8ebf;" parent="1" edge="1">
          <mxGeometry width="50" height="50" relative="1" as="geometry">
            <mxPoint x="1080" y="-345" as="sourcePoint" />
            <mxPoint x="1080" y="-400" as="targetPoint" />
          </mxGeometry>
        </mxCell>
        <mxCell id="7J8SJTc09jxHJSIJmYuL-58" value="" style="endArrow=classic;html=1;rounded=0;entryX=0;entryY=0.5;entryDx=0;entryDy=0;fillColor=#dae8fc;strokeColor=#6c8ebf;" parent="1" target="7J8SJTc09jxHJSIJmYuL-55" edge="1">
          <mxGeometry width="50" height="50" relative="1" as="geometry">
            <mxPoint x="1080" y="-400" as="sourcePoint" />
            <mxPoint x="1130" y="-450" as="targetPoint" />
          </mxGeometry>
        </mxCell>
        <mxCell id="7J8SJTc09jxHJSIJmYuL-59" value="Προβολή εναλλακτικών προϊόντων για&lt;br style=&quot;border-color: var(--border-color);&quot;&gt;προϊόντα που είναι out of stock" style="ellipse;whiteSpace=wrap;html=1;fillColor=#f8cecc;strokeColor=#b85450;" parent="1" vertex="1">
          <mxGeometry x="1230" y="-185" width="165" height="90" as="geometry" />
        </mxCell>
        <mxCell id="7J8SJTc09jxHJSIJmYuL-61" value="Όχι&lt;br&gt;" style="text;html=1;align=center;verticalAlign=middle;resizable=0;points=[];autosize=1;strokeColor=#b85450;fillColor=#f8cecc;" parent="1" vertex="1">
          <mxGeometry x="1070" y="-175" width="40" height="30" as="geometry" />
        </mxCell>
        <mxCell id="7J8SJTc09jxHJSIJmYuL-63" value="Φαρμακεία που διαθέτουν&amp;nbsp;προϊόν" style="shape=umlBoundary;whiteSpace=wrap;html=1;" parent="1" vertex="1">
          <mxGeometry x="640" y="240" width="130" height="100" as="geometry" />
        </mxCell>
        <mxCell id="7J8SJTc09jxHJSIJmYuL-64" value="" style="endArrow=classic;html=1;rounded=0;entryX=-0.015;entryY=0.44;entryDx=0;entryDy=0;entryPerimeter=0;" parent="1" source="0mSsdc6eGmOm2Ww2mC35-1" target="7J8SJTc09jxHJSIJmYuL-63" edge="1">
          <mxGeometry width="50" height="50" relative="1" as="geometry">
            <mxPoint x="670" y="90" as="sourcePoint" />
            <mxPoint x="720" y="40" as="targetPoint" />
          </mxGeometry>
        </mxCell>
        <mxCell id="7J8SJTc09jxHJSIJmYuL-65" value="Επιλογή Φαρμακείου" style="text;html=1;align=center;verticalAlign=middle;resizable=0;points=[];autosize=1;strokeColor=none;fillColor=none;rotation=35;fontSize=16;" parent="1" vertex="1">
          <mxGeometry x="340" y="70" width="170" height="30" as="geometry" />
        </mxCell>
        <mxCell id="7J8SJTc09jxHJSIJmYuL-69" value="" style="endArrow=classic;html=1;rounded=0;entryX=-0.014;entryY=0.51;entryDx=0;entryDy=0;entryPerimeter=0;exitX=0.835;exitY=0.934;exitDx=0;exitDy=0;exitPerimeter=0;" parent="1" source="7J8SJTc09jxHJSIJmYuL-63" target="0mSsdc6eGmOm2Ww2mC35-28" edge="1">
          <mxGeometry width="50" height="50" relative="1" as="geometry">
            <mxPoint x="670" y="510" as="sourcePoint" />
            <mxPoint x="720" y="460" as="targetPoint" />
          </mxGeometry>
        </mxCell>
        <mxCell id="7J8SJTc09jxHJSIJmYuL-70" value="&lt;font style=&quot;font-size: 15px;&quot;&gt;Καλάθι παραγγελιών με επιλογές&lt;br style=&quot;border-color: var(--border-color); font-size: 15px;&quot;&gt;&lt;span style=&quot;font-size: 15px;&quot;&gt;Προσθήκη άλλου προϊόντος ή&lt;/span&gt;&lt;br style=&quot;border-color: var(--border-color); font-size: 15px;&quot;&gt;&lt;span style=&quot;font-size: 15px;&quot;&gt;ολοκλήρωση παραγγελίας&lt;/span&gt;&lt;/font&gt;" style="shape=umlBoundary;whiteSpace=wrap;html=1;fontSize=15;" parent="1" vertex="1">
          <mxGeometry x="600" y="350" width="240" height="170" as="geometry" />
        </mxCell>
        <mxCell id="7J8SJTc09jxHJSIJmYuL-71" value="" style="endArrow=classic;html=1;rounded=0;entryX=0.012;entryY=0.548;entryDx=0;entryDy=0;entryPerimeter=0;" parent="1" source="0mSsdc6eGmOm2Ww2mC35-1" target="7J8SJTc09jxHJSIJmYuL-70" edge="1">
          <mxGeometry width="50" height="50" relative="1" as="geometry">
            <mxPoint x="670" y="80" as="sourcePoint" />
            <mxPoint x="720" y="30" as="targetPoint" />
            <Array as="points">
              <mxPoint x="550" y="370" />
            </Array>
          </mxGeometry>
        </mxCell>
        <mxCell id="7J8SJTc09jxHJSIJmYuL-72" value="Προσθήκη άλλου προϊόντος ή&lt;br style=&quot;border-color: var(--border-color); font-size: 17px;&quot;&gt;&lt;span style=&quot;font-size: 17px;&quot;&gt;ολοκλήρωση παραγγελίας&lt;/span&gt;" style="text;html=1;align=center;verticalAlign=middle;resizable=0;points=[];autosize=1;strokeColor=none;fillColor=none;rotation=40;fontSize=17;" parent="1" vertex="1">
          <mxGeometry x="335" y="190" width="250" height="50" as="geometry" />
        </mxCell>
        <mxCell id="7J8SJTc09jxHJSIJmYuL-73" value="" style="endArrow=classic;html=1;rounded=0;entryX=1.016;entryY=0.536;entryDx=0;entryDy=0;entryPerimeter=0;exitX=0.035;exitY=0.7;exitDx=0;exitDy=0;exitPerimeter=0;" parent="1" source="0mSsdc6eGmOm2Ww2mC35-28" target="7J8SJTc09jxHJSIJmYuL-70" edge="1">
          <mxGeometry width="50" height="50" relative="1" as="geometry">
            <mxPoint x="670" y="70" as="sourcePoint" />
            <mxPoint x="720" y="20" as="targetPoint" />
          </mxGeometry>
        </mxCell>
        <mxCell id="7J8SJTc09jxHJSIJmYuL-74" value="" style="endArrow=none;html=1;rounded=0;exitX=0.922;exitY=0.791;exitDx=0;exitDy=0;exitPerimeter=0;" parent="1" source="7J8SJTc09jxHJSIJmYuL-70" edge="1">
          <mxGeometry width="50" height="50" relative="1" as="geometry">
            <mxPoint x="915" y="465" as="sourcePoint" />
            <mxPoint x="1500" y="490" as="targetPoint" />
          </mxGeometry>
        </mxCell>
        <mxCell id="7J8SJTc09jxHJSIJmYuL-75" value="" style="endArrow=none;html=1;rounded=0;" parent="1" edge="1">
          <mxGeometry width="50" height="50" relative="1" as="geometry">
            <mxPoint x="1500" y="490" as="sourcePoint" />
            <mxPoint x="1490" y="-460" as="targetPoint" />
          </mxGeometry>
        </mxCell>
        <mxCell id="7J8SJTc09jxHJSIJmYuL-76" value="" style="endArrow=none;html=1;rounded=0;" parent="1" edge="1">
          <mxGeometry width="50" height="50" relative="1" as="geometry">
            <mxPoint x="380" y="-450" as="sourcePoint" />
            <mxPoint x="1490" y="-460" as="targetPoint" />
          </mxGeometry>
        </mxCell>
        <mxCell id="7J8SJTc09jxHJSIJmYuL-77" value="" style="endArrow=classic;html=1;rounded=0;entryX=0.756;entryY=0.069;entryDx=0;entryDy=0;entryPerimeter=0;" parent="1" target="0mSsdc6eGmOm2Ww2mC35-2" edge="1">
          <mxGeometry width="50" height="50" relative="1" as="geometry">
            <mxPoint x="378" y="-450" as="sourcePoint" />
            <mxPoint x="720" y="20" as="targetPoint" />
          </mxGeometry>
        </mxCell>
        <mxCell id="7J8SJTc09jxHJSIJmYuL-78" value="Προσθήκη άλλου προϊόντος" style="text;html=1;align=center;verticalAlign=middle;resizable=0;points=[];autosize=1;strokeColor=none;fillColor=none;rotation=0;fontSize=16;" parent="1" vertex="1">
          <mxGeometry x="1025" y="440" width="220" height="30" as="geometry" />
        </mxCell>
        <mxCell id="7J8SJTc09jxHJSIJmYuL-107" style="edgeStyle=orthogonalEdgeStyle;rounded=0;orthogonalLoop=1;jettySize=auto;html=1;" parent="1" source="7J8SJTc09jxHJSIJmYuL-79" target="7J8SJTc09jxHJSIJmYuL-106" edge="1">
          <mxGeometry relative="1" as="geometry" />
        </mxCell>
        <mxCell id="7J8SJTc09jxHJSIJmYuL-79" value="&lt;span style=&quot;font-size: 17px;&quot;&gt;Οθόνη Ολοκλήρωσης της Παραγγελίας&lt;/span&gt;" style="shape=umlBoundary;whiteSpace=wrap;html=1;fontSize=17;" parent="1" vertex="1">
          <mxGeometry x="545" y="650" width="225" height="160" as="geometry" />
        </mxCell>
        <mxCell id="7J8SJTc09jxHJSIJmYuL-81" value="&lt;font style=&quot;font-size: 15px;&quot;&gt;Υπολογισμός συνολικού κόστους&lt;/font&gt;" style="ellipse;shape=umlControl;whiteSpace=wrap;html=1;" parent="1" vertex="1">
          <mxGeometry x="1275" y="530" width="187.5" height="120" as="geometry" />
        </mxCell>
        <mxCell id="7J8SJTc09jxHJSIJmYuL-83" value="" style="endArrow=classic;html=1;rounded=0;exitX=0.789;exitY=0.975;exitDx=0;exitDy=0;exitPerimeter=0;" parent="1" source="7J8SJTc09jxHJSIJmYuL-70" target="7J8SJTc09jxHJSIJmYuL-81" edge="1">
          <mxGeometry width="50" height="50" relative="1" as="geometry">
            <mxPoint x="620" y="170" as="sourcePoint" />
            <mxPoint x="670" y="120" as="targetPoint" />
          </mxGeometry>
        </mxCell>
        <mxCell id="7J8SJTc09jxHJSIJmYuL-84" value="&lt;font style=&quot;font-size: 16px;&quot;&gt;Ολοκλήρωση Παραγγελίας&lt;/font&gt;" style="text;html=1;align=center;verticalAlign=middle;resizable=0;points=[];autosize=1;strokeColor=none;fillColor=none;rotation=0;" parent="1" vertex="1">
          <mxGeometry x="1010" y="490" width="210" height="30" as="geometry" />
        </mxCell>
        <mxCell id="7J8SJTc09jxHJSIJmYuL-95" style="edgeStyle=orthogonalEdgeStyle;rounded=0;orthogonalLoop=1;jettySize=auto;html=1;entryX=-0.025;entryY=0.531;entryDx=0;entryDy=0;entryPerimeter=0;" parent="1" source="7J8SJTc09jxHJSIJmYuL-85" target="7J8SJTc09jxHJSIJmYuL-94" edge="1">
          <mxGeometry relative="1" as="geometry" />
        </mxCell>
        <mxCell id="7J8SJTc09jxHJSIJmYuL-99" style="edgeStyle=orthogonalEdgeStyle;rounded=0;orthogonalLoop=1;jettySize=auto;html=1;" parent="1" source="7J8SJTc09jxHJSIJmYuL-85" target="7J8SJTc09jxHJSIJmYuL-79" edge="1">
          <mxGeometry relative="1" as="geometry" />
        </mxCell>
        <mxCell id="7J8SJTc09jxHJSIJmYuL-85" value="O Πελάτης είναι Premium;" style="ellipse;shape=umlControl;whiteSpace=wrap;html=1;fontSize=15;" parent="1" vertex="1">
          <mxGeometry x="1015" y="700" width="190" height="150" as="geometry" />
        </mxCell>
        <mxCell id="7J8SJTc09jxHJSIJmYuL-86" value="" style="endArrow=classic;html=1;rounded=0;entryX=0.862;entryY=0.221;entryDx=0;entryDy=0;entryPerimeter=0;exitX=0.131;exitY=0.895;exitDx=0;exitDy=0;exitPerimeter=0;" parent="1" source="7J8SJTc09jxHJSIJmYuL-81" target="7J8SJTc09jxHJSIJmYuL-85" edge="1">
          <mxGeometry width="50" height="50" relative="1" as="geometry">
            <mxPoint x="620" y="280" as="sourcePoint" />
            <mxPoint x="670" y="230" as="targetPoint" />
          </mxGeometry>
        </mxCell>
        <mxCell id="7J8SJTc09jxHJSIJmYuL-91" value="" style="endArrow=classic;html=1;rounded=0;exitX=1;exitY=1;exitDx=0;exitDy=0;exitPerimeter=0;entryX=0.321;entryY=0.094;entryDx=0;entryDy=0;entryPerimeter=0;" parent="1" source="0mSsdc6eGmOm2Ww2mC35-1" target="7J8SJTc09jxHJSIJmYuL-79" edge="1">
          <mxGeometry width="50" height="50" relative="1" as="geometry">
            <mxPoint x="620" y="280" as="sourcePoint" />
            <mxPoint x="670" y="230" as="targetPoint" />
          </mxGeometry>
        </mxCell>
        <mxCell id="7J8SJTc09jxHJSIJmYuL-93" value="Ολοκλήρωση της παραγγελίας" style="text;html=1;align=center;verticalAlign=middle;resizable=0;points=[];autosize=1;strokeColor=none;fillColor=none;rotation=53;fontSize=19;" parent="1" vertex="1">
          <mxGeometry x="260" y="250.00000000000003" width="280" height="40" as="geometry" />
        </mxCell>
        <mxCell id="7J8SJTc09jxHJSIJmYuL-97" style="edgeStyle=orthogonalEdgeStyle;rounded=0;orthogonalLoop=1;jettySize=auto;html=1;fillColor=#e1d5e7;strokeColor=#9673a6;" parent="1" source="7J8SJTc09jxHJSIJmYuL-94" target="0mSsdc6eGmOm2Ww2mC35-95" edge="1">
          <mxGeometry relative="1" as="geometry">
            <Array as="points">
              <mxPoint x="1590" y="870" />
            </Array>
          </mxGeometry>
        </mxCell>
        <mxCell id="7J8SJTc09jxHJSIJmYuL-94" value="&lt;span style=&quot;font-size: 14px;&quot;&gt;Όθονη Εξαργύρωσης Πόντων&lt;/span&gt;" style="shape=umlBoundary;whiteSpace=wrap;html=1;fillColor=#dae8fc;strokeColor=#6c8ebf;" parent="1" vertex="1">
          <mxGeometry x="1300" y="820" width="190" height="100" as="geometry" />
        </mxCell>
        <mxCell id="7J8SJTc09jxHJSIJmYuL-96" value="&#xa;&lt;span style=&quot;color: rgb(0, 0, 0); font-family: Helvetica; font-size: 16px; font-style: normal; font-variant-ligatures: normal; font-variant-caps: normal; font-weight: 400; letter-spacing: normal; orphans: 2; text-align: center; text-indent: 0px; text-transform: none; widows: 2; word-spacing: 0px; -webkit-text-stroke-width: 0px; background-color: rgb(251, 251, 251); text-decoration-thickness: initial; text-decoration-style: initial; text-decoration-color: initial; float: none; display: inline !important;&quot;&gt;Ναι&lt;/span&gt;&#xa;&#xa;" style="text;html=1;align=center;verticalAlign=middle;resizable=0;points=[];autosize=1;strokeColor=#6c8ebf;fillColor=#dae8fc;fontSize=16;" parent="1" vertex="1">
          <mxGeometry x="1260" y="770" width="50" height="70" as="geometry" />
        </mxCell>
        <mxCell id="7J8SJTc09jxHJSIJmYuL-98" value="&lt;font style=&quot;font-size: 16px;&quot;&gt;Εξαργύρωση&lt;/font&gt;" style="text;html=1;align=center;verticalAlign=middle;resizable=0;points=[];autosize=1;strokeColor=#9673a6;fillColor=#e1d5e7;rotation=0;" parent="1" vertex="1">
          <mxGeometry x="1510" y="870" width="120" height="30" as="geometry" />
        </mxCell>
        <mxCell id="7J8SJTc09jxHJSIJmYuL-100" value="Όχι" style="text;html=1;align=center;verticalAlign=middle;resizable=0;points=[];autosize=1;strokeColor=none;fillColor=none;fontSize=16;" parent="1" vertex="1">
          <mxGeometry x="795" y="695" width="50" height="30" as="geometry" />
        </mxCell>
        <mxCell id="7J8SJTc09jxHJSIJmYuL-105" style="edgeStyle=orthogonalEdgeStyle;rounded=0;orthogonalLoop=1;jettySize=auto;html=1;fillColor=#dae8fc;strokeColor=#6c8ebf;" parent="1" source="7J8SJTc09jxHJSIJmYuL-101" target="7J8SJTc09jxHJSIJmYuL-79" edge="1">
          <mxGeometry relative="1" as="geometry" />
        </mxCell>
        <mxCell id="7J8SJTc09jxHJSIJmYuL-101" value="Υπολογισμός και καταχώρηση νέων&amp;nbsp; πόντων" style="ellipse;shape=umlControl;whiteSpace=wrap;html=1;fontSize=15;fillColor=#dae8fc;strokeColor=#6c8ebf;" parent="1" vertex="1">
          <mxGeometry x="945" y="880" width="190" height="150" as="geometry" />
        </mxCell>
        <mxCell id="7J8SJTc09jxHJSIJmYuL-103" value="" style="endArrow=classic;html=1;rounded=0;entryX=1.018;entryY=0.68;entryDx=0;entryDy=0;entryPerimeter=0;exitX=0.544;exitY=1.02;exitDx=0;exitDy=0;exitPerimeter=0;" parent="1" source="7J8SJTc09jxHJSIJmYuL-94" target="7J8SJTc09jxHJSIJmYuL-101" edge="1">
          <mxGeometry width="50" height="50" relative="1" as="geometry">
            <mxPoint x="520" y="970" as="sourcePoint" />
            <mxPoint x="570" y="920" as="targetPoint" />
            <Array as="points">
              <mxPoint x="1330" y="980" />
            </Array>
          </mxGeometry>
        </mxCell>
        <mxCell id="7J8SJTc09jxHJSIJmYuL-104" value="&lt;font style=&quot;font-size: 16px;&quot;&gt;Όχι Εξαργύρωση&lt;/font&gt;" style="text;html=1;align=center;verticalAlign=middle;resizable=0;points=[];autosize=1;strokeColor=#6c8ebf;fillColor=#dae8fc;rotation=0;" parent="1" vertex="1">
          <mxGeometry x="1180" y="940" width="150" height="30" as="geometry" />
        </mxCell>
        <mxCell id="7J8SJTc09jxHJSIJmYuL-109" style="edgeStyle=orthogonalEdgeStyle;rounded=0;orthogonalLoop=1;jettySize=auto;html=1;" parent="1" source="7J8SJTc09jxHJSIJmYuL-106" target="7J8SJTc09jxHJSIJmYuL-108" edge="1">
          <mxGeometry relative="1" as="geometry" />
        </mxCell>
        <mxCell id="7J8SJTc09jxHJSIJmYuL-106" value="Καταχώηρηση Παραγγελίας" style="ellipse;shape=umlControl;whiteSpace=wrap;html=1;fontSize=16;" parent="1" vertex="1">
          <mxGeometry x="210" y="790" width="190" height="150" as="geometry" />
        </mxCell>
        <mxCell id="7J8SJTc09jxHJSIJmYuL-108" value="&lt;font style=&quot;font-size: 15px;&quot;&gt;Παραγγελίες&lt;/font&gt;" style="ellipse;shape=umlEntity;whiteSpace=wrap;html=1;" parent="1" vertex="1">
          <mxGeometry x="237.5" y="550" width="135" height="145" as="geometry" />
        </mxCell>
        <mxCell id="v3bIDm9uozYSWbY9ADvY-3" value="" style="endArrow=classic;html=1;rounded=0;exitX=0.48;exitY=1.063;exitDx=0;exitDy=0;exitPerimeter=0;" edge="1" parent="1" source="0mSsdc6eGmOm2Ww2mC35-5" target="0mSsdc6eGmOm2Ww2mC35-9">
          <mxGeometry width="50" height="50" relative="1" as="geometry">
            <mxPoint x="510" y="-40" as="sourcePoint" />
            <mxPoint x="560" y="-90" as="targetPoint" />
          </mxGeometry>
        </mxCell>
        <mxCell id="v3bIDm9uozYSWbY9ADvY-4" value="" style="endArrow=classic;html=1;rounded=0;entryX=0.037;entryY=0.6;entryDx=0;entryDy=0;entryPerimeter=0;exitX=0.988;exitY=0.478;exitDx=0;exitDy=0;exitPerimeter=0;" edge="1" parent="1" source="0mSsdc6eGmOm2Ww2mC35-9" target="0mSsdc6eGmOm2Ww2mC35-108">
          <mxGeometry width="50" height="50" relative="1" as="geometry">
            <mxPoint x="510" y="-40" as="sourcePoint" />
            <mxPoint x="560" y="-90" as="targetPoint" />
          </mxGeometry>
        </mxCell>
        <mxCell id="v3bIDm9uozYSWbY9ADvY-5" value="Αγαπημένα Προϊόντα" style="ellipse;shape=umlEntity;whiteSpace=wrap;html=1;" vertex="1" parent="1">
          <mxGeometry x="930" y="140" width="80" height="80" as="geometry" />
        </mxCell>
        <mxCell id="v3bIDm9uozYSWbY9ADvY-7" value="" style="endArrow=classic;html=1;rounded=0;exitX=0.469;exitY=1.008;exitDx=0;exitDy=0;exitPerimeter=0;entryX=1.031;entryY=0.474;entryDx=0;entryDy=0;entryPerimeter=0;" edge="1" parent="1" source="7J8SJTc09jxHJSIJmYuL-41" target="7J8SJTc09jxHJSIJmYuL-63">
          <mxGeometry width="50" height="50" relative="1" as="geometry">
            <mxPoint x="820" y="160" as="sourcePoint" />
            <mxPoint x="870" y="110" as="targetPoint" />
            <Array as="points">
              <mxPoint x="1160" y="240" />
            </Array>
          </mxGeometry>
        </mxCell>
        <mxCell id="v3bIDm9uozYSWbY9ADvY-8" value="" style="endArrow=classic;html=1;rounded=0;exitX=0.013;exitY=0.575;exitDx=0;exitDy=0;exitPerimeter=0;entryX=0.427;entryY=0.046;entryDx=0;entryDy=0;entryPerimeter=0;" edge="1" parent="1" source="7J8SJTc09jxHJSIJmYuL-106" target="0mSsdc6eGmOm2Ww2mC35-2">
          <mxGeometry width="50" height="50" relative="1" as="geometry">
            <mxPoint x="420" y="860" as="sourcePoint" />
            <mxPoint x="470" y="810" as="targetPoint" />
            <Array as="points">
              <mxPoint x="30" y="880" />
              <mxPoint x="20" y="-390" />
              <mxPoint x="348" y="-390" />
            </Array>
          </mxGeometry>
        </mxCell>
      </root>
    </mxGraphModel>
  </diagram>
</mxfile>
